<?xml version="1.0" encoding="iso-8859-1"?>
<!-- Uploaded to: SVG Repo, www.svgrepo.com, Generator: SVG Repo Mixer Tools -->
<svg height="800px" width="800px" version="1.1" id="Layer_1" xmlns="http://www.w3.org/2000/svg" xmlns:xlink="http://www.w3.org/1999/xlink" 
	 viewBox="0 0 512.001 512.001" xml:space="preserve">
<circle style="fill:#8CC1EA;" cx="256.001" cy="276.106" r="227.466"/>
<path style="fill:#79B1D6;" d="M88.127,276.104c0-115.527,86.126-210.929,197.671-225.525c-9.752-1.276-19.697-1.943-29.797-1.943
	c-125.627,0-227.468,101.841-227.468,227.468s101.84,227.468,227.468,227.468c10.1,0,20.044-0.667,29.797-1.943
	C174.253,487.034,88.127,391.631,88.127,276.104z"/>
<path style="fill:#F2CA7F;" d="M443.418,67.415c-16.78-77.046-127.978-77.046-144.758,0c-1.68,7.71-2.564,15.718-2.564,23.933
	c0,48.861,31.302,90.404,74.943,105.689c43.642-15.286,74.943-56.829,74.943-105.689C445.983,83.134,445.098,75.126,443.418,67.415z
	"/>
<circle style="fill:#79B1D6;" cx="371.04" cy="85.329" r="32.506"/>
<path d="M459.85,155.529c-2.533-4.295-8.069-5.725-12.365-3.191c-4.296,2.533-5.724,8.07-3.191,12.366
	c18.197,30.855,28.457,65.866,29.937,101.77h-69.582c-0.389-16.522-1.83-32.901-4.326-48.808c-0.773-4.927-5.39-8.297-10.319-7.521
	c-4.927,0.773-8.294,5.393-7.521,10.319c2.35,14.987,3.715,30.425,4.101,46.008H265.031v-81.751
	c10.719-0.405,21.41-1.519,31.89-3.348c4.913-0.857,8.201-5.535,7.343-10.447c-0.856-4.913-5.535-8.204-10.447-7.343
	c-9.458,1.651-19.107,2.675-28.786,3.07V57.261c3.941,0.16,7.874,0.413,11.764,0.78c4.972,0.472,9.371-3.176,9.839-8.141
	c0.468-4.965-3.176-9.369-8.141-9.839c-7.422-0.701-14.989-1.056-22.491-1.056c-70.911,0-137.47,31.421-182.61,86.205
	c-3.171,3.849-2.622,9.54,1.227,12.712c1.682,1.386,3.715,2.061,5.737,2.061c2.604,0,5.189-1.121,6.973-3.288
	c3.475-4.218,7.1-8.27,10.841-12.184c10.059,9.031,20.774,17.117,32.034,24.212c-13.956,35.038-21.865,75.431-22.853,117.751H37.765
	c1.247-31.244,8.961-61.175,23.02-89.089c2.243-4.453,0.451-9.882-4.003-12.126c-4.455-2.245-9.883-0.451-12.126,4.003
	c-16.689,33.136-25.152,68.882-25.152,106.242c0,130.406,106.093,236.498,236.497,236.498
	c130.406,0,236.498-106.093,236.498-236.498C492.499,233.231,481.21,191.744,459.85,155.529z M246.971,57.594v109.053
	c-33.172-1.348-65.111-10.106-93.827-25.466c3.593-7.614,7.506-14.899,11.742-21.795C187.382,82.766,216.247,61.146,246.971,57.594z
	 M111.206,111.949c20.833-18.48,44.841-32.676,70.754-41.997c-11.796,10.726-22.715,24.114-32.461,39.979
	c-4.302,7.002-8.297,14.366-11.977,22.045C128.319,126.017,119.525,119.328,111.206,111.949z M146.001,157.848
	c30.954,16.296,65.314,25.531,100.971,26.869v81.757h-54.63c-4.987,0-9.03,4.043-9.03,9.03s4.043,9.03,9.03,9.03h54.63v81.765
	c-35.656,1.338-70.016,10.573-100.968,26.868c-12.525-32.348-19.638-69.563-20.589-108.633h36.827c4.987,0,9.03-4.043,9.03-9.03
	s-4.043-9.03-9.03-9.03h-36.827C126.365,227.406,133.477,190.193,146.001,157.848z M164.887,431.621
	c-4.234-6.894-8.147-14.177-11.739-21.788c28.716-15.359,60.652-24.117,93.823-25.464v109.044
	C216.247,489.859,187.382,468.239,164.887,431.621z M37.765,284.533h69.586c0.987,42.322,8.896,82.719,22.855,117.758
	c-11.233,7.077-21.924,15.141-31.963,24.147C62.62,389.217,40.01,339.457,37.765,284.533z M111.297,438.984
	c8.293-7.348,17.058-14.009,26.227-19.949c3.679,7.677,7.673,15.038,11.973,22.037c9.726,15.832,20.619,29.197,32.387,39.914
	C155.668,471.501,131.776,457.13,111.297,438.984z M359.577,428.579c-4.252-2.609-9.811-1.277-12.419,2.973
	c-22.502,36.662-51.383,58.306-82.128,61.86V384.368c50.395,2.047,97.951,21.193,135.673,54.618
	c-20.477,18.146-44.37,32.516-70.586,42c11.786-10.732,22.695-24.123,32.434-39.989
	C365.158,436.748,363.827,431.188,359.577,428.579z M413.757,426.439c-41.199-36.957-93.402-58.066-148.726-60.141v-81.765h121.555
	c-0.752,31.129-5.388,60.981-13.835,88.854c-1.446,4.773,1.251,9.814,6.022,11.261c0.873,0.265,1.755,0.39,2.622,0.39
	c3.874,0,7.456-2.514,8.638-6.414c8.959-29.563,13.858-61.177,14.616-94.091h69.587
	C471.993,339.458,449.383,389.219,413.757,426.439z"/>
<path d="M368.055,204.958c0.966,0.338,1.976,0.507,2.985,0.507s2.019-0.17,2.985-0.507c48.442-16.966,80.989-62.865,80.989-114.212
	c0-8.713-0.932-17.411-2.77-25.854l0,0C442.479,20.065,404.423,0,371.039,0s-71.439,20.065-81.202,64.892
	c-1.838,8.442-2.772,17.141-2.772,25.854C287.066,142.094,319.613,187.991,368.055,204.958z M307.483,68.735
	c8.146-37.404,39.329-50.675,63.556-50.675s55.41,13.271,63.556,50.675l0,0c1.564,7.183,2.357,14.588,2.357,22.011
	c0,42.621-26.357,80.83-65.914,96.07c-39.555-15.241-65.914-53.449-65.914-96.07C305.126,83.323,305.919,75.917,307.483,68.735z"/>
<path d="M371.039,126.263c22.902,0,41.536-18.633,41.536-41.536s-18.633-41.536-41.536-41.536
	c-22.903,0-41.536,18.633-41.536,41.536S348.136,126.263,371.039,126.263z M371.039,61.251c12.944,0,23.476,10.531,23.476,23.476
	c0,12.944-10.531,23.476-23.476,23.476c-12.945,0-23.476-10.531-23.476-23.476S358.094,61.251,371.039,61.251z"/>
</svg>